<svg xmlns="http://www.w3.org/2000/svg" width="76.708" height="67.829" viewBox="0 0 76.708 67.829"><defs><style>.a{fill:#fff;fill-rule:evenodd;}</style></defs><g transform="translate(-109.106 -245.799)"><path class="a" d="M453.83,466.871a3.093,3.093,0,0,0-2.565-2.818c-.377-.048-.546.07-.761.583a2.646,2.646,0,0,0-.179,1.439,2.114,2.114,0,0,0,.749,1.907c.557.542.61.339,1.316.028C453.067,467.711,453.831,467.318,453.83,466.871Z" transform="translate(-268.535 -171.765)"/><path class="a" d="M415.367,509.757a3.074,3.074,0,0,0-2.173-.337,5.333,5.333,0,0,0-1.012.057,1.867,1.867,0,0,0-.932.638c-.138.182-.124.454-.282.608-.262.254-.48-.471-.591.3-.1.7-.405.99.33,1.135.219.2.24.331.448.454.152.09.48.18.678.271.241.031.512.032.73.079.607.131.549.246,1.14-.049a8.487,8.487,0,0,0,1.932-.605c.491-.358.523-.48.578-1.108C416.263,510.613,416.084,510.465,415.367,509.757Z" transform="translate(-236.993 -207.438)"/><path class="a" d="M315.4,316.9a2.209,2.209,0,0,0,1.016,2.525c.241.126.383.089.655-.2a1.889,1.889,0,0,0,.477-.919,1.511,1.511,0,0,0-.027-1.463c-.238-.5-.324-.379-.874-.346C316.115,316.531,315.506,316.6,315.4,316.9Z" transform="translate(-162.251 -55.614)"/><path class="a" d="M456.116,440.223a1.917,1.917,0,0,0,.085,1.661,1.9,1.9,0,0,0,1.089,1.255c.278.146.443.1.756-.232a2.183,2.183,0,0,0,.551-1.061,1.743,1.743,0,0,0-.032-1.689c-.275-.579-.374-.438-1.009-.4C456.948,439.792,456.244,439.877,456.116,440.223Z" transform="translate(-272.987 -152.617)"/><path class="a" d="M425.693,485.483l-.245.3a4.929,4.929,0,0,1-1.09,1.759,4.521,4.521,0,0,1-.89.8,2.972,2.972,0,0,1-1.014.484,1.969,1.969,0,0,1-.3.036c-.286.018-.566.052-.848.091a1.242,1.242,0,0,1-.721-.149c-.172-.078-.24-.11-.292-.193a1.206,1.206,0,0,1-.095-.224.519.519,0,0,1-.162-.218.96.96,0,0,1,.083-.8c.027-.055.057-.109.087-.161a2.384,2.384,0,0,0,.316-.531,1.973,1.973,0,0,1,.619-.689,4.682,4.682,0,0,1,2.454-.9,6.266,6.266,0,0,1,1.143.137l.594-.118c.164-.059.235-.138.347-.111.069.017.2.19.172.256A1.077,1.077,0,0,1,425.693,485.483Z" transform="translate(-244.674 -188.254)"/><path class="a" d="M144.1,255.356a2.333,2.333,0,0,0-.381-2.558c-4.929-6.216-17.209-5.358-24.239-5.358a35.083,35.083,0,0,1-8.42-.765c-1.384-.355-3.03-1.778-1.021,0,4.733,4.186,10.78,10.525,16.585,12.758,1.7.654,5.5.259,7.144-.255a12.422,12.422,0,0,1,1.247-.33,26.974,26.974,0,0,0-12.927,23.038c0,.8.037,1.6.106,2.388,1.755-20.331,15.733-17.623,24.026-23.371a17.907,17.907,0,0,1,5.628-1.927c.723-.137,1.422-.383,2.151-.51a5.5,5.5,0,0,1,.8-.074l-.61-.231-2.222-.841c.008-.076-.079.029-.079-.048C151.892,253.7,145.947,255.013,144.1,255.356Z"/><path class="a" d="M330.928,298.208a27.066,27.066,0,0,1,4.976,7.029A15.283,15.283,0,0,0,333,302.428a16.73,16.73,0,0,0-8.027-3.891,22.487,22.487,0,0,0-3.7-.529c-2.01.1-.5.281.246.622,1.255.573,1.978,2.57,2.946,3.733,5.058,6.077,10.944,1.382,14.077,12.348.069-.787.106-1.583.106-2.388,0-3.275-.076-4.6.776-7.318.989-3.153,4.624-6,4.708-9.156.04-1.512-.628-3.528,0-4.755.376-.732,1.45-1.806-.192-.641a22.482,22.482,0,0,0-2.577,2.7,16.73,16.73,0,0,0-3.9,8.024c-.2.931-.341,1.594-.433,2.194-2.6-7.576-8.152-14.851-15.164-17.269a29.163,29.163,0,0,0-4.6-1.532c-2.589-.338-.706.242.17.851,1.469,1.022,1.928,3.739,2.894,5.448.91,1.61,3.424,2.965,5.756,3.964A12.939,12.939,0,0,1,330.928,298.208Z" transform="translate(-162.804 -30.438)"/><path class="a" d="M197.071,455.735a29.817,29.817,0,0,0,19.362-7.838q.218-.206.432-.411.461-.376.921-.768c.674-.575,3.164-3.945,2.848-4.4.172-.633-.081-1.057-1.614-.54-1.776.6-2,2.177-3.514,2.972q-.182.1-.359.2a12.306,12.306,0,0,0,2.144-2.7c.366-.68,2.355-3.348-.684-2.325-1.776.6-2,2.177-3.514,2.972a12.951,12.951,0,0,0-1.81,1.209,9.534,9.534,0,0,0,1.182-1.67c.366-.68,2.355-3.347-.684-2.325-1.776.6-2,2.177-3.513,2.972-1.278.67-2.4,1.746-3.259,2.27a26.769,26.769,0,0,1-2.659,1.138,2.247,2.247,0,0,0-.407-.026c-2.231.047-3.506,1.035.434-1.208,1.327-.756,4-2.342,3.91-4.684-.042-1.06-.6-1.223-2.6-.02-15.673,9.41-31.732,5.9-33.495-14.19-.069.787-.106,1.583-.106,2.388A26.992,26.992,0,0,0,197.071,455.735Z" transform="translate(-47.99 -142.106)"/><path class="a" d="M411,437.455c-.3.549-.858.638-1.552,1.854a2.826,2.826,0,0,0-.254,2,2.86,2.86,0,0,0,1.576,1.8c1.8,1,4.371-.241,5.711-2.725s.956-5.291-.858-6.27a3.138,3.138,0,0,0-2.545-.446,2.131,2.131,0,0,0-1.589,1.844A8.673,8.673,0,0,1,411,437.455Z" transform="translate(-236.121 -147.763)"/><path class="a" d="M405.751,480.841c-.6.365-.62.606-.822,1.158a1.621,1.621,0,0,0,.065,1.417c.109.245.242.3.629.245a1.865,1.865,0,0,0,.931-.419c.554-.384.716-.466.873-1.149.122-.534-.019-.491-.465-.8C406.536,480.992,406.02,480.676,405.751,480.841Z" transform="translate(-232.718 -184.95)"/></g></svg>