<svg xmlns="http://www.w3.org/2000/svg" width="112.973" height="56.745" viewBox="0 0 112.973 56.745"><defs><style>.a{fill:#fdfdfd;}</style></defs><g transform="translate(227.979 80.046)"><g transform="translate(-227.979 -80.046)"><path class="a" d="M201.312,451.623h-.878v-.961a3.733,3.733,0,0,1-2.683,1.14,3.648,3.648,0,0,1,0-7.3,3.726,3.726,0,0,1,2.683,1.142V441.14h.878v10.483Zm-.878-2.917v-1.1a2.6,2.6,0,0,0-.748-1.383,2.727,2.727,0,1,0,.748,2.484Zm6.183-4.2a3.646,3.646,0,1,1-2.578,1.069,3.5,3.5,0,0,1,2.578-1.069Zm0,.913a2.74,2.74,0,1,0,1.935.8A2.638,2.638,0,0,0,206.616,445.42Z" transform="translate(-193.631 -404.8)"/><path class="a" d="M316.2,400.054h-.845v-.926a3.6,3.6,0,0,1-2.585,1.1,3.512,3.512,0,0,1,0-7.025,3.59,3.59,0,0,1,2.585,1.1v-4.341h.845v10.093Zm-.845-2.809v-1.059a2.5,2.5,0,0,0-.721-1.332,2.623,2.623,0,1,0,.721,2.391Zm4.313,1.529a2.345,2.345,0,0,0,1.639.568,2.559,2.559,0,0,0,1.864-.766q.1-.1.252-.286l.859.3a4.585,4.585,0,0,1-.486.6,3.5,3.5,0,1,1-.3-5.247c.1.086.2.18.3.282.036.039.1.111.2.218l-.512.514-3.816,3.813Zm3.082-4.272a2.3,2.3,0,0,0-1.443-.42,2.63,2.63,0,0,0-2.632,2.629,2.306,2.306,0,0,0,.42,1.445Z" transform="translate(-246.312 -381.388)"/><path class="a" d="M193.231,419.189l3.424-.522a2.5,2.5,0,0,0,.887,1.513,2.987,2.987,0,0,0,1.87.519,3.338,3.338,0,0,0,1.989-.489,1.073,1.073,0,0,0,.452-.908.9.9,0,0,0-.245-.647,2.729,2.729,0,0,0-1.14-.448,18.381,18.381,0,0,1-5.236-1.662,3.327,3.327,0,0,1-1.53-2.906,3.57,3.57,0,0,1,1.323-2.815,6.171,6.171,0,0,1,4.1-1.144,7.2,7.2,0,0,1,3.939.862,4.408,4.408,0,0,1,1.77,2.554l-3.217.593a1.973,1.973,0,0,0-.784-1.152,2.844,2.844,0,0,0-1.646-.4,3.682,3.682,0,0,0-1.931.378.811.811,0,0,0-.386.692.746.746,0,0,0,.34.618,12.731,12.731,0,0,0,3.188.962,9.431,9.431,0,0,1,3.806,1.517,3.159,3.159,0,0,1,1.069,2.537,3.894,3.894,0,0,1-1.484,3.051,6.549,6.549,0,0,1-4.382,1.273,7.2,7.2,0,0,1-4.174-1.07,4.9,4.9,0,0,1-2.007-2.9Zm22.5-.423,3.4.567a5.578,5.578,0,0,1-2.073,2.848,6.053,6.053,0,0,1-3.54.978,5.765,5.765,0,0,1-4.979-2.2,7.389,7.389,0,0,1-1.277-4.444,7.115,7.115,0,0,1,1.679-5.024,5.51,5.51,0,0,1,4.236-1.816,5.726,5.726,0,0,1,4.544,1.9q1.66,1.9,1.592,5.824h-8.552a3.441,3.441,0,0,0,.825,2.359,2.589,2.589,0,0,0,1.969.846,2.1,2.1,0,0,0,1.347-.435,2.688,2.688,0,0,0,.825-1.409Zm.2-3.449a3.292,3.292,0,0,0-.763-2.255,2.459,2.459,0,0,0-3.619.046,3.141,3.141,0,0,0-.717,2.21Zm5.916-5.344h3.146v1.758a5.06,5.06,0,0,1,4.021-2.052,4.324,4.324,0,0,1,2.147.509,3.921,3.921,0,0,1,1.5,1.542,5.935,5.935,0,0,1,1.832-1.542,4.5,4.5,0,0,1,2.1-.509,4.675,4.675,0,0,1,2.4.58,3.525,3.525,0,0,1,1.468,1.692,7.32,7.32,0,0,1,.353,2.674v8.245H237.4V415.5a5.475,5.475,0,0,0-.352-2.479,1.618,1.618,0,0,0-1.456-.73,2.313,2.313,0,0,0-1.351.44,2.422,2.422,0,0,0-.908,1.28,9.212,9.212,0,0,0-.282,2.666v6.194h-3.412V415.8a9.88,9.88,0,0,0-.182-2.429,1.551,1.551,0,0,0-.564-.813,1.79,1.79,0,0,0-1.041-.27,2.453,2.453,0,0,0-1.418.427,2.323,2.323,0,0,0-.908,1.227,9.094,9.094,0,0,0-.273,2.657v6.268h-3.411v-12.9Zm29.839,8.793,3.4.567a5.577,5.577,0,0,1-2.072,2.848,6.055,6.055,0,0,1-3.541.978,5.764,5.764,0,0,1-4.978-2.2,7.386,7.386,0,0,1-1.277-4.444A7.117,7.117,0,0,1,244.9,411.5a5.511,5.511,0,0,1,4.236-1.816,5.724,5.724,0,0,1,4.544,1.9q1.661,1.9,1.592,5.824h-8.553a3.441,3.441,0,0,0,.825,2.359,2.589,2.589,0,0,0,1.969.846,2.1,2.1,0,0,0,1.347-.435,2.689,2.689,0,0,0,.825-1.409Zm.195-3.449a3.292,3.292,0,0,0-.763-2.255,2.459,2.459,0,0,0-3.619.046,3.141,3.141,0,0,0-.717,2.21Zm17.9,7.553H266.37v-6.583a10.209,10.209,0,0,0-.22-2.7,1.916,1.916,0,0,0-.713-.953,2.045,2.045,0,0,0-1.182-.34,2.732,2.732,0,0,0-1.592.486,2.467,2.467,0,0,0-.966,1.289,11.118,11.118,0,0,0-.262,2.964v5.841h-3.411v-12.9h3.167v1.895a5.288,5.288,0,0,1,6.318-1.782,3.462,3.462,0,0,1,1.414,1.041,3.768,3.768,0,0,1,.667,1.434,10.413,10.413,0,0,1,.191,2.293v8.017Zm9.373-12.9v2.72h-2.33v5.2a12.812,12.812,0,0,0,.066,1.841.762.762,0,0,0,.3.431.976.976,0,0,0,.576.17,4.52,4.52,0,0,0,1.376-.327l.29,2.644a6.79,6.79,0,0,1-2.7.51,4.341,4.341,0,0,1-1.662-.307,2.454,2.454,0,0,1-1.086-.8,3.166,3.166,0,0,1-.481-1.33,16.934,16.934,0,0,1-.108-2.4v-5.621h-1.567v-2.72H273.4v-2.566l3.425-1.99v4.556Zm9.837,8.793,3.4.567a5.575,5.575,0,0,1-2.073,2.848,6.053,6.053,0,0,1-3.54.978,5.765,5.765,0,0,1-4.979-2.2,7.389,7.389,0,0,1-1.277-4.444,7.117,7.117,0,0,1,1.679-5.024,5.513,5.513,0,0,1,4.237-1.816,5.725,5.725,0,0,1,4.543,1.9q1.66,1.9,1.592,5.824h-8.552a3.441,3.441,0,0,0,.825,2.359,2.589,2.589,0,0,0,1.969.846,2.1,2.1,0,0,0,1.347-.435,2.692,2.692,0,0,0,.825-1.409Zm.195-3.449a3.292,3.292,0,0,0-.763-2.255,2.459,2.459,0,0,0-3.619.046,3.144,3.144,0,0,0-.717,2.21Zm4.97,3.872,3.424-.522a2.5,2.5,0,0,0,.887,1.513,2.986,2.986,0,0,0,1.87.519,3.34,3.34,0,0,0,1.99-.489,1.076,1.076,0,0,0,.452-.908.9.9,0,0,0-.245-.647,2.726,2.726,0,0,0-1.14-.448,18.381,18.381,0,0,1-5.236-1.662,3.327,3.327,0,0,1-1.53-2.906,3.568,3.568,0,0,1,1.323-2.815,6.172,6.172,0,0,1,4.1-1.144,7.2,7.2,0,0,1,3.938.862,4.408,4.408,0,0,1,1.77,2.554l-3.217.593a1.971,1.971,0,0,0-.784-1.152,2.844,2.844,0,0,0-1.646-.4,3.687,3.687,0,0,0-1.932.378.81.81,0,0,0-.385.692.745.745,0,0,0,.34.618,12.716,12.716,0,0,0,3.187.962,9.431,9.431,0,0,1,3.806,1.517,3.159,3.159,0,0,1,1.069,2.537,3.893,3.893,0,0,1-1.484,3.051,6.545,6.545,0,0,1-4.381,1.273,7.2,7.2,0,0,1-4.175-1.07A4.9,4.9,0,0,1,294.157,419.189Z" transform="translate(-193.231 -388.459)"/><path class="a" d="M221.854,463.325l8.558-9.684-7.021-7.947h1.739l6.14,6.965,6.18-6.965h1.733l-7.05,7.947,8.587,9.684h-1.739l-7.712-8.7-7.695,8.7Zm64.067-7.9c3.392,0,6.782-.023,10.144-.023v5.727a17,17,0,0,1-9.192,2.4,17.5,17.5,0,0,1-9.78-2.639q-4.043-2.64-4.043-6.386t4.043-6.378a17.468,17.468,0,0,1,9.78-2.644,17.857,17.857,0,0,1,9.3,2.346l-1.146.681a15.976,15.976,0,0,0-8.149-2.016,15.517,15.517,0,0,0-8.674,2.346q-3.594,2.347-3.594,5.664t3.594,5.675a15.521,15.521,0,0,0,8.674,2.347,16.208,16.208,0,0,0,7.677-1.752V456.9h-8.629v-1.469Zm-39.97-9.733v17.63h-1.52v-17.63Zm5.4,0h1.676l13.869,15.678V445.695h1.515v17.63h-1.515l-14.025-15.832v15.832h-1.52v-17.63Zm65.554,0h1.538v12.674a5.451,5.451,0,0,1-2.58,3.426,12.379,12.379,0,0,1-12.469,0,4.839,4.839,0,0,1-2.586-4.065V445.695h1.538v12.034a4,4,0,0,0,2.137,3.355,10.222,10.222,0,0,0,10.3,0,4,4,0,0,0,2.125-3.355Z" transform="translate(-206.325 -406.79)"/><path class="a" d="M196.628,375.107v8.978h3.882a7.168,7.168,0,0,0,4.345-1.314,3.7,3.7,0,0,0,0-6.354,7.187,7.187,0,0,0-4.345-1.31Zm4.267,9.916c-.122.007-.253.01-.385.01h-3.882v5.775h-1.286v-16.65h6a8.882,8.882,0,0,1,4.437,1.594,4.478,4.478,0,0,1,0,7.689,8.175,8.175,0,0,1-3.468,1.445l5.265,5.921H205.99l-5.095-5.786Zm21.4-10.864v.938H212.166v6.918H222.3v.938H212.166v6.918H222.3v.938H210.88v-16.65Zm5.207.98v14.7h.1q5.078,0,7.8-2a6.244,6.244,0,0,0,0-10.718q-2.725-1.987-7.8-1.986Zm0-.959h.1q5.633,0,8.734,2.269a7.028,7.028,0,0,1,0,12.068q-3.1,2.27-8.734,2.269h-.1v.022h-1.286v-16.65h1.286v.021Zm27.243-.021v.938H244.617v6.918h10.132v.938H244.617v6.918h10.132v.938H243.331v-16.65Z" transform="translate(-194.197 -374.159)"/></g></g></svg>