<svg xmlns="http://www.w3.org/2000/svg" width="34.198" height="34.2" viewBox="0 0 34.198 34.2"><defs><style>.a{fill:#215f60;mix-blend-mode:multiply;isolation:isolate;}</style></defs><g transform="translate(0)"><path class="a" d="M-483.364,1104.014l7.608-7.607a13.585,13.585,0,0,0,6.8,1.825,13.7,13.7,0,0,0,13.685-13.684,13.7,13.7,0,0,0-13.685-13.685,13.7,13.7,0,0,0-13.684,13.685,13.592,13.592,0,0,0,1.825,6.8l-7.608,7.607a3.568,3.568,0,0,0-1.046,2.53,3.567,3.567,0,0,0,1.046,2.53,3.553,3.553,0,0,0,2.531,1.049A3.557,3.557,0,0,0-483.364,1104.014Zm14.406-31.765a12.313,12.313,0,0,1,12.3,12.3,12.314,12.314,0,0,1-12.3,12.3,12.314,12.314,0,0,1-12.3-12.3A12.313,12.313,0,0,1-468.958,1072.249Zm-7.986,23.388-6.116,6.114-3.058-3.145,6.072-6.071A13.77,13.77,0,0,0-476.944,1095.637Zm-10.5,7.4a2.246,2.246,0,0,1,0-3.1l.347-.347,3.059,3.145-.3.3a2.18,2.18,0,0,1-1.551.643A2.176,2.176,0,0,1-487.445,1103.035Z" transform="translate(489.471 -1070.863)"/></g></svg>